<?xml version="1.0" encoding="utf-8"?>
<!-- Generator: Adobe Illustrator 25.4.1, SVG Export Plug-In . SVG Version: 6.00 Build 0)  -->
<svg version="1.1" id="Layer_1" xmlns="http://www.w3.org/2000/svg" xmlns:xlink="http://www.w3.org/1999/xlink" x="0px" y="0px"
	 viewBox="0 0 41.5 37.4" style="enable-background:new 0 0 41.5 37.4;" xml:space="preserve">
<style type="text/css">
	.st0{fill:#9A9A9A;fill-opacity:0.6;}
	.st1{fill:#CCCCCC;fill-opacity:0.8;}
	.st2{fill:#EEEEEE;fill-opacity:0.6;}
	.st3{fill:#B47CFD;}
	.st4{fill:#FF7FC2;}
</style>
<g id="Layer_2_00000134942008633765833920000000988619600141011845_">
	<g id="Layer_1-2">
		<path class="st0" d="M-190.1,28.9h6l4,4v9.9h-10V28.9z"/>
		<path class="st1" d="M-192.1,26.9h6l4,4v9.9h-10V26.9z"/>
		<path class="st2" d="M-194.1,24.9h6l4,4v9.9h-10V24.9z"/>
		<path class="st3" d="M-180.1,24.9l-1.5,4.5l-4.5,1.5l4.5,1.5l1.5,4.4l1.5-4.4l4.5-1.5l-4.5-1.5L-180.1,24.9z"/>
		<path class="st4" d="M-180.1,26.9l-1,3l-2,1l2,1l1,3l1-3l2-1l-2-1L-180.1,26.9z"/>
	</g>
</g>
</svg>
